<?xml version="1.0" encoding="utf-8"?>
<!DOCTYPE svg PUBLIC "-//W3C//DTD SVG 1.1//EN" "http://www.w3.org/Graphics/SVG/1.1/DTD/svg11.dtd">
<svg version="1.1" xmlns="http://www.w3.org/2000/svg" xmlns:xlink="http://www.w3.org/1999/xlink" width="32" height="32" viewBox="0 0 32 32">
<path d="M0 19.249v-4.342c0-0.398 0.327-0.723 0.727-0.723h7.673l-3.341 5.789h-4.332c-0.4 0-0.727-0.325-0.727-0.724zM5.466 28.141l-2.449 1.659c-0.329 0.224-0.563 0.082-0.517-0.313l0.327-2.839c0.045-0.395 0.366-0.557 0.713-0.359l1.895 1.083c0.346 0.199 0.36 0.546 0.031 0.769zM6.054 26.541l-1.895-1.083c-0.346-0.198-0.469-0.642-0.267-0.987l8.776-15.212c0.199-0.346 0.648-0.467 0.994-0.266l1.895 1.080c0.347 0.2 0.466 0.645 0.267 0.989l-8.775 15.213c-0.199 0.345-0.648 0.463-0.994 0.266zM12.733 19.973l3.341-5.789h1.924l2.713 5.789h-7.977zM23.614 21.701c-0.759-0.379-4.537-9.058-5.505-11.323-0.969-2.265-3.895-8.293-2.949-8.762 0.673-0.336 3.091 4.41 4.903 7.26 1.81 2.85 5.594 10.198 6.060 11.034 0.463 0.839-0.446 1.538-0.951 1.748s-0.799 0.418-1.557 0.042zM26.097 25.691l-1.142-1.796c-0.236-0.374-0.114-0.835 0.269-1.032l1.088-0.557c0.384-0.195 0.864-0.037 1.068 0.354l0.901 1.725c0.205 0.39 0.065 0.891-0.304 1.111l-0.778 0.463c-0.369 0.223-0.866 0.102-1.102-0.268zM30.298 30.4c-0.239-0.761-2.060-0.811-2.875-1.957-0.818-1.142-0.142-1.73 0.142-2.001 3.307-1.855 2.733 3.958 2.733 3.958zM32 19.249c0 0.399-0.327 0.724-0.727 0.724h-3.841c-0.042-0.223-0.111-0.447-0.227-0.656-0.1-0.178-0.353-0.659-0.705-1.328-0.508-0.967-1.238-2.349-2.020-3.805h6.793c0.4 0 0.727 0.325 0.727 0.723v4.342h0z"></path>
</svg>
