<?xml version="1.0" encoding="utf-8"?>
<!DOCTYPE svg PUBLIC "-//W3C//DTD SVG 1.1//EN" "http://www.w3.org/Graphics/SVG/1.1/DTD/svg11.dtd">
<svg version="1.1" xmlns="http://www.w3.org/2000/svg" xmlns:xlink="http://www.w3.org/1999/xlink" width="32" height="32" viewBox="0 0 32 32">
<path d="M16.577 22.774c-0.325-0.239-0.36-0.598-0.36-0.598l-0.122-0.78h-3.888l-0.122 0.78c0 0-0.034 0.359-0.359 0.598s-0.582 0.445-0.325 0.479c0.247 0.033 2.579 0.003 2.751 0 0.172 0.003 2.503 0.033 2.751 0 0.256-0.035-0.001-0.239-0.325-0.479z"></path>
<path d="M7.534 16.231c0-0.361-0.293-0.653-0.653-0.653h-3.102c-0.361 0-0.653 0.293-0.653 0.653v6.857c0 0.361 0.293 0.653 0.653 0.653h3.102c0.361 0 0.653-0.292 0.653-0.653v-6.857h-0zM5.005 16.313h0.653c0.045 0 0.082 0.036 0.082 0.081s-0.037 0.082-0.082 0.082h-0.653c-0.045 0-0.082-0.037-0.082-0.082s0.037-0.081 0.082-0.081zM5.305 23.355c-0.18 0-0.327-0.146-0.327-0.327s0.146-0.327 0.327-0.327c0.18 0 0.327 0.146 0.327 0.327s-0.146 0.327-0.327 0.327zM7.126 22.436h-3.592v-5.47h3.592v5.47z"></path>
<path d="M27.959 11.821h-6.719c-0.506 0-0.916 0.41-0.916 0.916v9.616c0 0.506 0.41 0.916 0.916 0.916h6.719c0.506 0 0.916-0.41 0.916-0.916v-9.616c-0-0.506-0.41-0.916-0.916-0.916zM23.284 22.76c-0.253 0-0.458-0.205-0.458-0.457s0.205-0.458 0.458-0.458c0.253 0 0.457 0.205 0.457 0.458s-0.205 0.457-0.457 0.457zM24.599 22.76c-0.253 0-0.458-0.205-0.458-0.457s0.205-0.458 0.458-0.458c0.253 0 0.458 0.205 0.458 0.458s-0.204 0.457-0.458 0.457zM25.916 22.76c-0.253 0-0.458-0.205-0.458-0.457s0.205-0.458 0.458-0.458c0.253 0 0.458 0.205 0.458 0.458s-0.205 0.457-0.458 0.457zM28.302 21.437h-7.406v-8.815h7.406v8.815z"></path>
<path d="M22.409 11.049h1.126v-2.039c0-0.415-0.336-0.751-0.751-0.751h-17.266c-0.415 0-0.751 0.336-0.751 0.751v5.796h1.126v-5.421h16.516v1.664z"></path>
<path d="M8.306 18.393v2.252h11.246v-2.252h-11.246zM14.151 20.034c-0.284 0-0.515-0.231-0.515-0.515s0.231-0.515 0.515-0.515c0.284 0 0.515 0.231 0.515 0.515s-0.231 0.515-0.515 0.515z"></path>
</svg>
